<svg width="280" height="280" viewBox="0 0 280 280" fill="none" xmlns="http://www.w3.org/2000/svg">
<path d="M67.7107 113.994C75.0917 113.948 82.2083 111.241 87.7538 106.37C93.2994 101.499 96.9015 94.7903 97.8988 87.4769C98.8961 80.1635 97.2216 72.7358 93.1828 66.5577C89.1439 60.3796 83.012 55.8659 75.9128 53.8453L38.2223 91.5358C40.003 97.9901 43.8518 103.682 49.1784 107.739C54.505 111.795 61.0153 113.993 67.7107 113.994Z" fill="#FFCC00"/>
<path d="M98.1765 144.46H119.137V166.787H98.1765C92.1125 166.787 86.1847 168.586 81.1427 171.955C76.1006 175.324 72.1709 180.112 69.8503 185.714C67.5297 191.317 66.9225 197.482 68.1055 203.429C69.2886 209.377 72.2086 214.84 76.4965 219.128C80.7844 223.415 86.2476 226.336 92.195 227.519C98.1425 228.702 104.307 228.094 109.91 225.774C115.512 223.453 120.301 219.523 123.669 214.481C127.038 209.439 128.837 203.512 128.837 197.448V82.5535C128.862 68.8438 134.199 55.6774 143.728 45.8206C153.257 35.9639 166.236 30.1841 179.937 29.6957L157.544 7.23769C152.895 2.60272 146.598 0 140.033 0C133.468 0 127.171 2.60272 122.522 7.23769L92.9689 36.7912C100.303 40.6668 106.625 46.2103 111.426 52.9754C116.227 59.7406 119.372 67.5384 120.609 75.7411C121.845 83.9438 121.139 92.3223 118.546 100.202C115.953 108.082 111.547 115.243 105.681 121.109C99.8153 126.975 92.6543 131.381 84.7745 133.974C76.8946 136.567 68.5161 137.273 60.3134 136.036C52.1107 134.8 44.3129 131.654 37.5477 126.854C30.7826 122.053 25.2391 115.731 21.3635 108.397L7.23769 122.522C2.60272 127.171 0 133.468 0 140.033C0 146.598 2.60272 152.895 7.23769 157.544L45.5791 195.299C46.1311 181.689 51.9032 168.814 61.6974 159.347C71.4915 149.88 84.5553 144.549 98.1765 144.46Z" fill="#FFCC00"/>
<path d="M212.288 166.005C204.907 166.051 197.791 168.758 192.245 173.629C186.7 178.501 183.098 185.209 182.1 192.522C181.103 199.836 182.778 207.263 186.816 213.441C190.855 219.62 196.987 224.133 204.086 226.154L241.777 188.789C240.056 182.274 236.233 176.509 230.901 172.39C225.569 168.27 219.026 166.026 212.288 166.005Z" fill="#FFCC00"/>
<path d="M272.762 122.521L234.746 84.6356C234.242 98.3424 228.448 111.321 218.58 120.848C208.713 130.376 195.54 135.711 181.823 135.736H160.863V113.213H181.823C187.887 113.213 193.815 111.414 198.857 108.045C203.899 104.677 207.829 99.888 210.15 94.2856C212.47 88.6832 213.078 82.5185 211.895 76.571C210.711 70.6236 207.791 65.1604 203.503 60.8726C199.216 56.5847 193.752 53.6646 187.805 52.4815C181.858 51.2985 175.693 51.9057 170.09 54.2263C164.488 56.5469 159.7 60.4766 156.331 65.5187C152.962 70.5607 151.163 76.4885 151.163 82.5525V197.447C151.139 211.163 145.803 224.336 136.276 234.204C126.749 244.071 113.77 249.865 100.063 250.369L122.521 272.762C127.17 277.397 133.467 280 140.032 280C146.597 280 152.894 277.397 157.543 272.762L187.031 243.209C179.697 239.333 173.375 233.79 168.574 227.025C163.773 220.26 160.628 212.462 159.391 204.259C158.155 196.056 158.861 187.678 161.454 179.798C164.047 171.918 168.453 164.757 174.319 158.891C180.185 153.026 187.346 148.619 195.226 146.026C203.105 143.433 211.484 142.727 219.687 143.964C227.889 145.2 235.687 148.346 242.452 153.146C249.217 157.947 254.761 164.269 258.637 171.604L272.762 157.543C277.397 152.894 280 146.597 280 140.032C280 133.467 277.397 127.17 272.762 122.521Z" fill="#FFCC00"/>
<path d="M151.163 197.447V82.5525C151.163 76.4885 152.962 70.5607 156.331 65.5186C159.7 60.4766 164.488 56.5468 170.09 54.2262C175.693 51.9056 181.858 51.2985 187.805 52.4815C193.753 53.6645 199.216 56.5846 203.504 60.8725C207.791 65.1604 210.712 70.6235 211.895 76.571C213.078 82.5185 212.47 88.6832 210.15 94.2856C207.829 99.888 203.899 104.676 198.857 108.045C193.815 111.414 187.888 113.213 181.824 113.213H160.863V135.54H181.824C195.507 135.518 208.653 130.209 218.515 120.724C228.377 111.238 234.192 98.308 234.746 84.6356L179.936 29.6947C166.235 30.1831 153.256 35.9629 143.727 45.8196C134.198 55.6763 128.861 68.8428 128.836 82.5525V197.447C128.836 203.511 127.037 209.438 123.668 214.48C120.299 219.522 115.511 223.452 109.909 225.773C104.306 228.093 98.1414 228.701 92.1939 227.518C86.2465 226.335 80.7834 223.414 76.4955 219.127C72.2076 214.839 69.2875 209.376 68.1044 203.428C66.9214 197.481 67.5286 191.316 69.8492 185.713C72.1698 180.111 76.0996 175.323 81.1416 171.954C86.1836 168.585 92.1114 166.786 98.1754 166.786H119.136V144.459H98.1754C84.5542 144.548 71.4904 149.879 61.6963 159.346C51.9022 168.813 46.13 181.688 45.578 195.298L100.324 250.109C113.94 249.541 126.815 243.755 136.28 233.95C145.746 224.145 151.075 211.074 151.163 197.447Z" fill="#120F07"/>
<path d="M67.7107 136.322C79.4839 136.306 90.9167 132.37 100.204 125.135C109.492 117.9 116.106 107.778 119.002 96.3669C121.897 84.9554 120.91 72.9045 116.196 62.1164C111.482 51.3282 103.309 42.4173 92.9679 36.7902L75.9128 53.8453C81.086 55.2674 85.7955 58.0221 89.5708 61.8342C93.346 65.6463 96.0549 70.3824 97.4267 75.5692C98.7985 80.756 98.7852 86.2119 97.3882 91.392C95.9912 96.5721 93.2594 101.295 89.4657 105.089C85.672 108.882 80.9492 111.614 75.7691 113.011C70.589 114.408 65.1331 114.421 59.9463 113.05C54.7595 111.678 50.0234 108.969 46.2113 105.194C42.3992 101.418 39.6445 96.7089 38.2223 91.5357L21.1672 108.591C25.7232 116.964 32.4485 123.957 40.6377 128.836C48.8269 133.715 58.1782 136.301 67.7107 136.322Z" fill="#120F07"/>
<path d="M212.288 143.677C200.515 143.693 189.082 147.629 179.795 154.864C170.507 162.099 163.893 172.221 160.997 183.632C158.102 195.044 159.089 207.094 163.803 217.883C168.517 228.671 176.69 237.582 187.031 243.209L204.086 226.154C198.89 224.743 194.156 221.989 190.362 218.167C186.568 214.346 183.847 209.594 182.474 204.387C181.1 199.181 181.121 193.704 182.536 188.509C183.951 183.313 186.709 178.582 190.533 174.791C194.357 171 199.112 168.283 204.32 166.913C209.527 165.543 215.004 165.569 220.198 166.988C225.393 168.407 230.122 171.169 233.91 174.996C237.698 178.823 240.411 183.58 241.777 188.789L258.832 171.734C254.319 163.3 247.612 156.241 239.42 151.303C231.228 146.364 221.854 143.73 212.288 143.677Z" fill="#120F07"/>
</svg>
