<svg xmlns="http://www.w3.org/2000/svg" viewBox="0 0 161.66 43.01"><defs><style>.cls-1{fill:#120f07;}.cls-2{fill:#f2cb12;}</style></defs><g id="Слой_2" data-name="Слой 2"><g id="Слой_1-2" data-name="Слой 1"><path class="cls-1" d="M64.73,23.45H67l-.41,5.64H64V26.21h-9v2.88H52.24l-.41-5.64h2.09a38.29,38.29,0,0,0,1.83-10.23h9Zm-3-7.6H58.51a39.28,39.28,0,0,1-1.35,7.6h4.59Z"/><path class="cls-1" d="M67.2,21.38c0-3.89,1.59-5,4.63-5s4.66,1.08,4.66,5-1.55,5.09-4.66,5.09S67.2,25.3,67.2,21.38Zm2.89.06c0,2.41.39,2.8,1.74,2.8s1.75-.39,1.75-2.8-.39-2.8-1.75-2.8S70.09,18.94,70.09,21.44Z"/><path class="cls-1" d="M77.49,17.08a14,14,0,0,1,4.32-.67c3.25,0,4.68,1.13,4.68,5s-1.67,5-4,5a5.09,5.09,0,0,1-2.09-.42v3.74H77.49Zm2.87,6.32c0,.43.63.73,1.47.73,1.36,0,1.79-.6,1.79-2.62,0-2.31-.44-2.72-1.81-2.72a4.69,4.69,0,0,0-1.45.23Z"/><path class="cls-1" d="M92.76,26.21H89.91V19.13H86.83V16.67h9v2.46H92.76Z"/><path class="cls-1" d="M104.18,26a12.14,12.14,0,0,1-3.45.52c-2.68,0-4.68-1.17-4.68-5.09s1.75-5,4.5-5c3.16,0,4.54,1,4.28,5.87H99c0,1.53.72,1.81,2.1,1.81a12.79,12.79,0,0,0,2.65-.32ZM99,20.17h3.32c0-1.32-.47-1.6-1.59-1.6S99.18,19,99,20.17Z"/><path class="cls-1" d="M111.59,26.21c-.41-.7-1-1.62-1.71-2.61-.79,1.07-1.48,2-2,2.61h-3.11c.84-1,2.25-2.87,3.63-4.75-1.32-1.87-2.7-3.69-3.59-4.77h3.28c.5.61,1.17,1.54,1.86,2.51.71-1,1.27-1.9,1.66-2.51h3.12c-.75,1.15-2,2.94-3.25,4.69,1.23,1.76,2.46,3.57,3.26,4.83Z"/><path class="cls-1" d="M122.2,26a9,9,0,0,1-3,.48c-2.85,0-4.75-1.17-4.75-5.09s1.92-5,4.75-5a10.51,10.51,0,0,1,3,.41l-.59,2.42a6.72,6.72,0,0,0-2.16-.39c-1.4,0-2.11.24-2.11,2.59s.71,2.57,2.11,2.57a5.79,5.79,0,0,0,2.16-.43Z"/><path class="cls-1" d="M129,26.21h-2.85V19.13h-3.08V16.67h9v2.46H129Z"/><path class="cls-1" d="M132.87,17.08a14.06,14.06,0,0,1,4.33-.67c3.24,0,4.68,1.13,4.68,5s-1.68,5-4,5a5.12,5.12,0,0,1-2.09-.42v3.74h-2.87Zm2.87,6.32c0,.43.64.73,1.48.73,1.36,0,1.79-.6,1.79-2.62,0-2.31-.45-2.72-1.81-2.72a4.7,4.7,0,0,0-1.46.23Z"/><path class="cls-1" d="M142.63,21.38c0-3.89,1.58-5,4.62-5s4.66,1.08,4.66,5-1.55,5.09-4.66,5.09S142.63,25.3,142.63,21.38Zm2.89.06c0,2.41.39,2.8,1.73,2.8s1.75-.39,1.75-2.8-.39-2.8-1.75-2.8S145.52,18.94,145.52,21.44Z"/><path class="cls-1" d="M158.81,21.22a36.72,36.72,0,0,1-3.25,5h-2.85V16.69h2.85v5.22a38.18,38.18,0,0,0,3.25-5.22h2.85v9.52h-2.85Zm-2.73-8c0,.8.38,1,1.14,1a.71.71,0,0,0,.21,0c.57,0,.89-.24.89-.95h1.75c0,1.84-1,2.66-2.92,2.66s-2.93-.82-2.93-2.66Z"/><path class="cls-2" d="M10.4,17.51a4.71,4.71,0,0,0,1.26-9.24L5.87,14.06A4.7,4.7,0,0,0,10.4,17.51Z"/><path class="cls-2" d="M15.08,22.19H18.3v3.43H15.08a4.71,4.71,0,1,0,4.71,4.71V12.68a8.14,8.14,0,0,1,7.85-8.12L24.2,1.11a3.81,3.81,0,0,0-5.38,0L14.28,5.65a8.14,8.14,0,1,1-11,11L1.11,18.82a3.81,3.81,0,0,0,0,5.38L7,30A8.14,8.14,0,0,1,15.08,22.19Z"/><path class="cls-2" d="M32.61,25.5a4.71,4.71,0,0,0-1.26,9.24L37.14,29A4.7,4.7,0,0,0,32.61,25.5Z"/><path class="cls-2" d="M41.9,18.82,36.06,13a8.15,8.15,0,0,1-8.13,7.85H24.71V17.39h3.22a4.71,4.71,0,1,0-4.71-4.71V30.33a8.15,8.15,0,0,1-7.85,8.13l3.45,3.44a3.81,3.81,0,0,0,5.38,0l4.53-4.54a8.14,8.14,0,1,1,11-11L41.9,24.2A3.81,3.81,0,0,0,41.9,18.82Z"/><path class="cls-1" d="M23.22,30.33V12.68a4.71,4.71,0,1,1,4.71,4.71H24.71v3.43h3.22A8.15,8.15,0,0,0,36.06,13L27.64,4.56a8.14,8.14,0,0,0-7.85,8.12V30.33a4.71,4.71,0,1,1-4.71-4.71H18.3V22.19H15.08A8.14,8.14,0,0,0,7,30l8.41,8.42A8.15,8.15,0,0,0,23.22,30.33Z"/><path class="cls-1" d="M10.4,20.94A8.14,8.14,0,0,0,14.28,5.65L11.66,8.27a4.71,4.71,0,1,1-5.79,5.79L3.25,16.68A8.16,8.16,0,0,0,10.4,20.94Z"/><path class="cls-1" d="M32.61,22.07a8.14,8.14,0,0,0-3.88,15.29l2.62-2.62A4.71,4.71,0,1,1,37.14,29l2.62-2.62A8.16,8.16,0,0,0,32.61,22.07Z"/></g></g></svg>