<svg width="344" height="52" viewBox="0 0 344 52" fill="none" xmlns="http://www.w3.org/2000/svg">
<path d="M40.4043 32.0415H47.5141L46.23 49.7066H38.1178V40.6861H9.92879V49.7066H1.28417L0 32.0415H6.5461C9.90396 21.6711 11.8323 10.8914 12.2779 0H40.4669L40.4043 32.0415ZM31.0079 8.23746H20.9225C20.298 16.2917 18.8817 24.2649 16.6942 32.0415H31.0706L31.0079 8.23746Z" fill="white"/>
<path d="M48.1406 25.5581C48.1406 13.3742 53.1207 9.89752 62.6423 9.89752C72.1639 9.89752 77.238 13.2802 77.238 25.5581C77.238 37.836 72.3832 41.5005 62.6423 41.5005C52.9015 41.5005 48.1406 37.836 48.1406 25.5581ZM57.1924 25.746C57.1924 33.2944 58.414 34.5159 62.6423 34.5159C66.8707 34.5159 68.1235 33.2944 68.1235 25.746C68.1235 18.1976 66.902 16.9761 62.6423 16.9761C58.3826 16.9761 57.1924 17.9157 57.1924 25.746Z" fill="white"/>
<path d="M80.3699 12.09C84.7425 10.6863 89.3084 9.97812 93.9007 9.99146C104.08 9.99146 108.559 13.5307 108.559 25.652C108.559 37.7733 103.328 41.3126 96.0305 41.3126C93.7801 41.3411 91.5491 40.8927 89.4844 39.9971V51.7112H80.3699V12.09ZM89.3591 31.8849C89.3591 33.2317 91.3323 34.1714 93.9633 34.1714C98.223 34.1714 99.5698 32.2921 99.5698 25.9652C99.5698 18.7301 98.1917 17.4459 93.9007 17.4459C92.3584 17.4461 90.8258 17.6892 89.3591 18.1663V31.8849Z" fill="white"/>
<path d="M128.197 40.6861H119.271V18.5108H109.624V10.8058H137.813V18.5108H128.197V40.6861Z" fill="white"/>
<path d="M163.966 40.0284C160.461 41.0887 156.822 41.6373 153.16 41.6571C144.766 41.6571 138.502 37.9925 138.502 25.7146C138.502 13.4368 143.983 10.0541 152.597 10.0541C162.494 10.0541 166.816 13.1862 166.002 28.4396H147.742C147.742 33.2317 149.997 34.1087 154.319 34.1087C157.113 34.065 159.895 33.7291 162.619 33.1064L163.966 40.0284ZM147.742 21.7682H158.14C158.14 17.6338 156.668 16.7568 153.16 16.7568C149.652 16.7568 148.306 18.1036 147.742 21.7682Z" fill="white"/>
<path d="M187.175 40.6861C185.891 38.4936 184.043 35.6121 181.819 32.5113C179.345 35.8627 177.184 38.7755 175.555 40.6861H165.814C168.445 37.554 172.861 31.697 177.184 25.8086C173.049 19.9515 168.727 14.2511 165.939 10.8684H176.213C177.779 12.779 179.877 15.6919 182.038 18.73C184.262 15.5979 186.016 12.779 187.238 10.8684H197.01C194.661 14.4703 190.746 20.0768 186.83 25.558C190.683 31.0705 194.535 36.7397 197.041 40.6861H187.175Z" fill="white"/>
<path d="M220.407 40.0285C217.382 41.0585 214.205 41.5668 211.01 41.5319C202.084 41.5319 196.133 37.8673 196.133 25.5894C196.133 13.3115 202.146 9.92887 211.01 9.92887C214.188 9.90114 217.353 10.3337 220.407 11.213L218.559 18.7927C216.386 18.0175 214.1 17.6049 211.793 17.5712C207.408 17.5712 205.185 18.3229 205.185 25.6834C205.185 33.0439 207.408 33.7329 211.793 33.7329C214.114 33.721 216.411 33.2638 218.559 32.3861L220.407 40.0285Z" fill="white"/>
<path d="M241.705 40.6861H232.779V18.5108H223.132V10.8058H251.321V18.5108H241.705V40.6861Z" fill="white"/>
<path d="M253.826 12.09C258.21 10.6861 262.786 9.97795 267.388 9.99146C277.537 9.99146 282.047 13.5307 282.047 25.652C282.047 37.7733 276.785 41.3126 269.518 41.3126C267.268 41.3382 265.038 40.89 262.972 39.9971V51.7112H253.983L253.826 12.09ZM262.816 31.8849C262.816 33.2317 264.82 34.1714 267.451 34.1714C271.711 34.1714 273.058 32.2921 273.058 25.9652C273.058 18.7301 271.648 17.4459 267.388 17.4459C265.836 17.4433 264.292 17.6865 262.816 18.1663V31.8849Z" fill="white"/>
<path d="M284.396 25.5581C284.396 13.3742 289.344 9.89752 298.866 9.89752C308.388 9.89752 313.462 13.2802 313.462 25.5581C313.462 37.836 308.607 41.5005 298.866 41.5005C289.125 41.5005 284.396 37.836 284.396 25.5581ZM293.448 25.746C293.448 33.2944 294.669 34.5159 298.866 34.5159C303.063 34.5159 304.347 33.2944 304.347 25.746C304.347 18.1976 303.126 16.9761 298.866 16.9761C294.606 16.9761 293.448 17.9157 293.448 25.746Z" fill="white"/>
<path d="M335.074 25.0569C332.111 30.5444 328.706 35.7819 324.894 40.7175H315.968V10.8684H324.894V27.2181C328.721 22.0507 332.125 16.5831 335.074 10.8684H344V40.6861H335.074V25.0569ZM326.523 0C326.523 2.50569 327.713 3.13211 330.093 3.13211C330.311 3.16472 330.533 3.16472 330.751 3.13211C332.536 3.13211 333.539 2.38041 333.539 0.156606H339.02C339.02 5.91969 335.888 8.48802 329.874 8.48802C323.861 8.48802 320.697 5.91969 320.697 0.156606L326.523 0Z" fill="white"/>
</svg>
